<svg xmlns="http://www.w3.org/2000/svg" viewBox="0 58.865 141.73 23.75">
  <defs/>
  <path fill="#BCBCBC" d="M16.375 77.947c2.731-.331 5.216-1.153 7.19-2.381 2.306-1.427 3.676-4.102 3.335-7.248-.378-3.553-4.233-8.201-13.171-8.182-3.619 0-7.134.718-9.638 2.409C1.635 64.209 0 66.713 0 69.245c0 4.129 4.025 7.577 10.233 8.569l6.813 3.779-.671-3.646z"/>
  <path fill="#FFF" d="M8.428 63.746c-.604 0-1.105.227-1.483.689s-.567 1.058-.567 1.786c0 1.029.255 1.87.756 2.513.51.652 1.162.974 1.965.974.652 0 1.2-.218 1.635-.671.435-.444.661-1.002.661-1.663 0-.974-.293-1.823-.888-2.551-.595-.719-1.276-1.077-2.079-1.077m.558-.549c1.323 0 2.409.435 3.26 1.305.85.869 1.275 1.983 1.275 3.345 0 1.691-.661 3.203-1.975 4.535s-2.967 2.164-4.96 2.485l-.803.132c-.095.01-.161.019-.236.019-.18 0-.265-.085-.255-.265.01-.094.038-.15.095-.17.057-.019.227-.065.529-.122.954-.189 1.88-.624 2.787-1.313.907-.69 1.512-1.408 1.805-2.174l.189-.491c.066-.17.104-.302.104-.406 0-.18-.066-.265-.217-.255-.066.01-.151.038-.265.104-.35.218-.793.416-1.304.576-.52.161-.945.246-1.294.246-.936 0-1.72-.321-2.362-.974-.633-.642-.945-1.445-.945-2.39 0-1.229.435-2.23 1.285-3.015.859-.784 1.954-1.172 3.287-1.172M18.35 63.746c-.605 0-1.106.227-1.484.689s-.567 1.058-.567 1.786c0 1.029.255 1.87.756 2.513.51.652 1.163.974 1.965.974.652 0 1.2-.218 1.635-.671.435-.444.662-1.002.662-1.663 0-.974-.293-1.823-.888-2.551-.596-.719-1.286-1.077-2.079-1.077m.547-.549c1.323 0 2.409.435 3.26 1.305.851.869 1.275 1.983 1.275 3.345 0 1.691-.661 3.203-1.975 4.535s-2.967 2.164-4.96 2.485l-.803.132c-.095.01-.161.019-.236.019-.18 0-.265-.085-.255-.265.009-.094.038-.15.094-.17.057-.019.227-.065.529-.122.954-.189 1.88-.624 2.787-1.313.898-.69 1.512-1.408 1.805-2.174l.189-.491c.066-.17.104-.302.104-.406 0-.18-.066-.265-.217-.255-.066.01-.151.038-.265.104-.35.218-.793.416-1.304.576-.51.161-.945.246-1.294.246-.936 0-1.72-.321-2.362-.974-.633-.642-.954-1.445-.954-2.39 0-1.229.435-2.23 1.285-3.015.869-.784 1.965-1.172 3.297-1.172"/>
  <path fill="#797979" d="M52.289 62.243c-.321 0-.501.133-.539.388l-.094.604-.151.889-.132.859c-.076.331-.123.586-.132.774-.019.208.123.303.397.303.189 0 .34-.132.435-.406l.104-.274c.265-.718.454-1.171.604-1.351.151-.18.444-.35.898-.491.624-.189 1.776-.293 3.486-.293.728 0 1.086.265 1.086.784v8.797l.01.463c0 .586-.18 1.049-.548 1.398-.359.34-.87.529-1.541.558-.255.019-.425.037-.491.085-.076.047-.123.142-.132.293-.009.179.123.265.388.265.113 0 .321-.01.614-.038l7.219-.038c.151.01.265.01.321.01.265 0 .397-.076.397-.236 0-.218-.151-.331-.463-.35-1.058-.047-1.795-.312-2.221-.774-.416-.464-.624-1.257-.624-2.372v-7.465c0-.614.161-1.001.473-1.152.321-.161 1.125-.236 2.419-.236.963 0 1.701.133 2.201.406.51.274.851.718 1.03 1.332.076.256.208.378.406.378.236 0 .34-.104.34-.33 0-.208-.028-.491-.094-.841-.076-.426-.123-.69-.123-.804l-.066-.718c-.019-.303-.274-.454-.747-.454-.065-.02-14.635.037-14.73.037"/>
  <path fill="#797979" d="M43.266 62.461c0 .122.066.208.18.255.123.047.406.104.841.151.728.085 1.228.255 1.502.52s.406.689.406 1.294v7.89l-.01.879c0 .576-.104.982-.302 1.229s-.604.453-1.219.633l-.378.236.019.076c.047.142.17.207.359.207h6.652c.558 0 .832-.094.832-.292 0-.208-.208-.303-.624-.303-.633 0-1.153-.133-1.55-.406-.397-.274-.643-.661-.747-1.172l-.104-.992v-8.409c0-.567.094-.945.264-1.124.18-.189.577-.321 1.181-.397.17-.019.274-.047.321-.094.038-.038.066-.123.066-.246 0-.161-.189-.161-.473-.161-.473 0-6.756-.028-6.907-.037h-.019c-.186-.012-.29.083-.29.263M70.998 63.566c-.983.651-1.767 1.502-2.343 2.541-.586 1.04-.879 2.107-.879 3.203 0 1.994.775 3.609 2.343 4.848 1.569 1.237 3.59 1.861 6.104 1.861 2.589 0 4.771-.774 6.529-2.315.67-.595 1.011-1.029 1.011-1.294 0-.151-.085-.218-.245-.218-.113.01-.228.066-.341.161l-.831.699c-.558.473-1.313.869-2.277 1.19s-1.881.481-2.74.481c-1.455 0-2.807-.472-4.044-1.427-1.653-1.275-2.466-2.976-2.466-5.111 0-1.635.501-2.967 1.512-3.987 1.011-1.03 2.314-1.54 3.93-1.54 1.824 0 3.469.614 4.951 1.861.369.303.747.718 1.153 1.229.406.52.643.897.708 1.152.039.161.133.236.266.236.236 0 .35-.123.35-.378 0-.17-.02-.368-.066-.586l-.236-2.825c0-.435-.133-.643-.396-.643-.113 0-.189.02-.236.076l-.265.312c-.085.104-.208.16-.388.16-.133 0-.293-.037-.463-.122l-.841-.378c-1.181-.529-2.57-.794-4.167-.794-2.137.002-4.018.54-5.633 1.608M89.271 73.336c-1.2-1.294-1.814-2.985-1.814-5.064 0-1.758.473-3.127 1.445-4.11.965-.982 2.307-1.483 4.016-1.483 1.598 0 2.996.435 4.168 1.285.813.576 1.455 1.37 1.945 2.353.482.983.729 2.003.729 3.043 0 1.795-.529 3.231-1.568 4.299-1.049 1.067-2.447 1.606-4.187 1.606-1.946.017-3.525-.634-4.734-1.929m.51-10.79c-1.275.406-2.324.954-3.156 1.663-.717.604-1.284 1.342-1.7 2.229-.415.889-.624 1.776-.624 2.684 0 2.098.832 3.77 2.477 5.026 1.652 1.257 3.864 1.881 6.613 1.881 2.883 0 5.15-.719 6.803-2.164 1.691-1.474 2.533-3.27 2.533-5.396 0-1.946-.822-3.524-2.457-4.724-1.635-1.2-3.779-1.796-6.443-1.796-1.419.001-2.77.199-4.046.597M112.023 62.233c-.293 0-.434.095-.434.284 0 .151.131.236.396.255 1.937.104 2.9 1.172 2.9 3.203v4.29l-.095 2.353c0 .813-.142 1.427-.425 1.861-.293.435-.746.718-1.37.859-.245.057-.378.151-.378.284 0 .16.123.245.35.245.133 0 5.735-.019 5.84-.019.264 0 .396-.104.396-.303 0-.151-.133-.236-.388-.255-1.38-.104-2.221-.52-2.485-1.257-.264-.689-.396-2.06-.396-4.119V66.07l.01-.293c0-.293.104-.444.302-.444.075 0 .218.085.425.265l11.623 10.016c.16.142.32.208.472.217.171.01.35-.085.35-.273l.095-10.129v-.482c0-1.351.548-2.106 1.653-2.268.274-.037.406-.057.406-.227 0-.189-.179-.218-.453-.218h-5.679c-.246 0-.406 0-.406.18 0 .142.142.218.416.236 1.181.066 1.975.378 2.391.926.406.549.604 1.598.604 3.146 0 1.323-.037 2.712-.122 4.167-.019.406-.113.604-.293.604-.188 0-.576-.245-1.162-.756 0 0-9.392-8.268-9.544-8.361-.15-.095-.358-.133-.623-.133-.19-.019-4.376-.01-4.376-.01M132.225 63.065c-.916.728-1.379 1.644-1.379 2.74 0 .944.33 1.691.982 2.258.662.567 1.899 1.162 3.732 1.805l1.946.671c.869.293 1.483.614 1.833.945.35.33.529.765.529 1.285 0 .661-.33 1.237-1.012 1.748-.68.51-1.455.765-2.314.765-1.115 0-2.173-.387-3.213-1.152-1.039-.775-1.757-1.72-2.173-2.854-.047-.161-.132-.236-.255-.236-.265 0-.396.16-.396.473 0 .245.973 3.524 1.029 3.581.066.057.293.113.689.18.284.047.719.15 1.314.293 1.285.312 2.201.463 2.797.463 1.436 0 2.701-.426 3.77-1.285 1.077-.851 1.605-1.853 1.605-3.005 0-1.039-.387-1.937-1.162-2.674-.66-.614-1.993-1.238-4.016-1.881-1.7-.528-2.711-.926-3.033-1.152-.5-.368-.756-.803-.756-1.313 0-.548.284-1.021.86-1.427.577-.406 1.237-.604 2.003-.604 1.115 0 2.174.331 3.176 1.011 1.001.671 1.625 1.465 1.861 2.391.065.246.179.378.33.378.208 0 .321-.142.321-.425 0-.048-.321-3.231-.321-3.231 0-.218-.095-.331-.273-.331-.066 0-.133.01-.199.038l-.481.188c-.132.048-.246.066-.378.066-.16 0-.436-.057-.813-.18l-.86-.273c-.765-.236-1.55-.359-2.343-.359-1.34-.002-2.475.366-3.4 1.103"/>
  <path fill="#797979" d="M102.103 62.461c0 .122.066.208.18.255.122.047.406.104.841.151.728.085 1.229.265 1.493.52.274.265.415.689.415 1.294v7.89l-.009.879c0 .576-.104.982-.303 1.229s-.604.463-1.228.633l-.379.236.02.076c.047.142.17.217.35.217h6.661c.558 0 .831-.095.831-.293 0-.208-.207-.302-.623-.302-.633 0-1.152-.133-1.55-.406-.397-.274-.643-.662-.747-1.172l-.104-.992v-8.429c0-.566.095-.944.265-1.124.18-.189.577-.321 1.181-.396.17-.02.274-.048.322-.095.037-.038.066-.123.066-.246 0-.16-.219-.16-.502-.16-.463 0-6.727-.028-6.879-.038h-.018c-.189-.002-.283.093-.283.273M33.458 73.865c-.066-1.087-.095-1.88-.095-2.589s-.009-1.55.312-1.918c.387-.435 1.256-.435 1.871-.435 1.304 0 1.691.037 2.721.245 1.776.359 2.684 1.313 2.684 2.854 0 .794-.274 1.475-.822 2.041-.67.681-1.909 1.021-3.723 1.021-1.843.01-2.891-.255-2.948-1.219m.255-5.99c-.236-.151-.359-.426-.359-.813v-2.476c0-.558.047-1.125.378-1.342.302-.208.813-.189 1.568-.189 1.323 0 2.391.038 3.194.633.813.605 1.219 1.398 1.219 2.391 0 1.21-.728 1.89-2.183 2.032h-2.56c-.595 0-1.012-.085-1.257-.236m-5.584-5.614l-.321-.009c-.246 0-.359.095-.359.293 0 .18.095.265.274.283l.585.066c.274.019 1.313.273 1.776.916.236.331.303.794.312 1.162.028 2.334.057 6.804.057 8.797 0 .624-.161 1.002-.302 1.172-.321.378-1.115.388-1.266.406-.236.038-.34.123-.34.274 0 .179.123.265.388.265 1.171 0 1.171-.01 8.73-.066 1.918 0 3.449-.378 4.583-1.144 1.125-.756 1.691-1.795 1.691-3.1 0-.859-.302-1.577-.926-2.154-.614-.576-1.455-.944-2.522-1.086-.34-.038-.51-.123-.492-.236.01-.075.17-.161.482-.265 1.37-.453 2.041-1.267 2.041-2.419 0-1.011-.548-1.814-1.634-2.419-1.096-.604-2.57-.746-4.375-.746-.7-.018-8.382.01-8.382.01"/>
</svg>
