<svg xmlns="http://www.w3.org/2000/svg" id="layer" x="0" y="0" version="1.1" viewBox="0 0 652 110" xml:space="preserve">
  <defs/>
  <style id="style12">
    .st0{fill:#161616}.st1{fill:#ff9500}
  </style>
  <path id="path14" stroke-width=".260258" d="M67.326702 82.96105L54.028568 89.4944V40.44241l13.298134-6.53335zm18.053066-8.86669l-13.298134 6.53335V31.57572l13.298134-6.53335zm4.754932-2.33334V22.70903l13.29813-6.53335v49.05199z" class="st0"/>
  <path id="path16" stroke-width=".260258" d="M49.37814 76.27214v13.19634L0 65.22767V52.03133zm0-17.94079v13.19634L0 47.28688V34.09054zm0-17.91486v13.19633L0 29.37201V16.17568z" class="st1"/>
  <path id="path18" stroke-width="1.26258" d="M134.83981.63129v75.7548h38.76121c18.18115 0 29.79688-8.20677 29.79688-21.21135 0-9.59561-5.93412-17.17109-15.27721-19.06496 7.82799-2.27264 12.87831-8.7118 12.87831-16.28728 0-11.61573-11.36322-19.06496-29.03934-19.06496h-37.11985zm22.34767 16.91857h13.63586c4.41903 0 7.19671 2.3989 7.19671 6.3129 0 4.04025-2.77768 6.56541-7.19671 6.56541h-13.63586zm0 28.15553h13.63586c5.68161 0 9.34309 2.52516 9.34309 6.69168 0 4.41903-3.53522 7.1967-9.34309 7.1967h-13.63586zM216.90751.63129h22.47392v75.7548h-22.47392z" class="st1"/>
  <path id="path20" stroke-width="1.26258" d="M311.22769 18.55992V.63129h-58.20494v17.92863h17.80238v57.82617h22.60018V18.55992z" class="st1"/>
  <path id="path22" stroke-width="1.26258" d="M359.89393 0c-23.48399 0-40.78133 16.28728-40.78133 38.38243 0 22.34766 16.91857 39.01372 40.02378 39.01372 11.48948 0 23.86277-5.68161 32.06954-14.64593l-13.00458-13.88838c-5.17658 5.30284-12.24702 8.7118-18.05489 8.7118-10.2269 0-18.0549-8.45928-18.0549-19.56999 0-11.1107 7.828-19.44373 18.0549-19.44373 6.3129 0 13.25709 4.04026 18.05489 10.10064l13.00458-15.27722C383.50418 5.17657 371.25715 0 359.89393 0zm78.1537 0c-23.7365 0-41.28636 16.16102-41.28636 38.50869 0 22.34766 17.54986 38.88746 41.28636 38.88746 23.73651 0 41.28637-16.66606 41.28637-38.88746C479.334 16.28728 461.78414 0 438.04763 0zm.37878 18.81244c9.97438 0 17.92863 8.33303 17.92863 19.8225 0 11.48948-7.95425 19.94877-17.92863 19.94877-9.97438 0-18.55993-8.58555-18.55993-19.94877s8.45929-19.8225 18.55993-19.8225zM492.08606.63129h22.47392v75.7548h-22.47392z" class="st1"/>
  <path id="path24" stroke-width="1.26258" d="M599.96116 76.38609V.63129h-20.58005v42.29643L547.31158.63129h-19.19122v75.7548h20.58006V34.21591l32.06953 42.17018z" class="st1"/>
  <g id="g28" transform="translate(-20.351688 -267.1417)">
    <path id="path26" d="M520.9 1803.4v-25.9h-9.1l-5.7 13.5-5.7-13.5h-9.1v25.9h7.5v-14.2l4.4 11.7h5.6l4.4-11.7v14.2zm22.8-3.6l1.3 3.7h9.1l-10.5-25.9h-8.8l-10.9 25.9h8.8l1.3-3.7zm-2.1-6.2h-5.4l2.7-7.6zm31.5-3.8v6c-1.3.5-2.5.9-3.4.9-3.4 0-5.8-2.6-5.8-6.2 0-3.5 2.4-6.1 5.8-6.1 2.1 0 4.7 1.1 6.4 2.7l4.8-5.9c-2.8-2.4-7.2-4-11.2-4-8.5 0-14.6 5.6-14.6 13.2 0 7.7 5.9 13.3 14 13.3 3.7 0 8.5-1.4 11.3-3.3v-10.7h-7.3zm29.6 10l1.3 3.7h9.1l-10.5-25.9h-8.8l-10.9 25.9h8.8l1.3-3.7zm-2.1-6.2h-5.4l2.7-7.6zm37.9-10.7v-5.4h-23.1v6.6H627l-12.1 14v5.4h23.8v-6.6h-12.3zm4.3-5.4h8.6v25.9h-8.6zm38.9 25.9v-25.9H674v13.3l-10.2-13.3h-7.2v25.9h7.8v-13.2l10.2 13.2zm27.1-19.4v-6.5h-21.9v25.9h22.3v-6.5h-13.7v-3.2h12.1v-6.5h-12.1v-3.2z" class="st0" transform="translate(-202.7426 -937.6971) scale(.72829)"/>
  </g>
</svg>
