<svg xmlns="http://www.w3.org/2000/svg" id="Layer_1" x="0" y="0" version="1.1" viewBox="0 0 150 30" xml:space="preserve">
  <defs/>
  <style>
    .st0{fill:#231f20}
  </style>
  <path d="M34.3 10.2H39v12.2h2.9V10.2h4.7V7.7H34.3zM58 13.6h-6.4V7.7h-3v14.7h3v-6.2H58v6.2h3V7.7h-3zM66.4 16.1h6.4v-2.4h-6.4v-3.5h7.2V7.7H63.4v14.7h10.4v-2.5h-7.4zM89.9 14.7c.8-.3 2.2-1.3 2.2-3.4 0-2.1-1.6-3.7-4.1-3.7h-6.5v14.7h6.8c2.5 0 4.4-1.6 4.4-4-.1-2-1.5-3.2-2.8-3.6zM84.3 10h2.8c1.3 0 2.1.6 2.1 1.9 0 1.2-.7 1.9-2 1.9h-2.8V10zm3.2 10.1h-3.2V16h3.1c1.4 0 2.3.7 2.3 2.1-.1 1.3-.9 2-2.2 2zM97.6 7.7h-2.9v14.7h10.1v-2.6h-7.2zM112.8 7.6c-4.2 0-7.3 2.9-7.3 7.5s3.1 7.4 7.3 7.4c4.2 0 7.3-2.9 7.3-7.5s-3.2-7.4-7.3-7.4zm0 12.3c-2.4 0-4.3-1.8-4.3-4.9 0-3.1 1.9-4.9 4.3-4.9s4.3 1.8 4.3 4.9c0 3.1-1.9 4.9-4.3 4.9zM128.7 10.1c2.4 0 3.4 1.4 3.7 3h2.9c-.3-3.2-2.4-5.6-6.6-5.6-4 0-6.9 3-6.9 7.5 0 4.6 2.9 7.5 6.9 7.5 4.3 0 6.3-2.4 6.6-5.6h-2.9c-.2 1.6-1.2 3-3.6 3-2.3 0-4-1.8-4-4.9-.1-3 1.7-4.9 3.9-4.9zM144.2 14l5.4-6.3h-3.5l-6 7.3V7.7h-2.9v14.7h2.9v-3.9l2.1-2.4 4.4 6.3h3.4zM12.8 28.3zM12.8 28.3zM12.4 28.4L.5 23.5c-.4-.2-.5-.2-.5-.7V7c0-.4.1-.5.5-.7l11.9-4.6c.4-.1.5-.1.9 0l11.9 4.6c.4.2.5.3.5.7v15.9c0 .4-.1.5-.5.7l-11.9 4.8c-.4.1-.5.2-.9 0zm.4-1.3L23.2 23l-10.4-3.8-10.4 3.7 10.4 4.2zM1.4 21.9l9.4-3.5-1.7-.7c-.1-.1-.2-.2-.2-.3v-4.9c0-.2.1-.3.2-.3l1.7-.7-9.4-3.6v14zm22.8 0V8l-9.4 3.5 1.7.7c.1.1.2.2.2.3v4.9c0 .1-.1.3-.2.3l-1.7.7 9.4 3.5zm-11.4-4.3l2.5-1v-3.5l-2.5-1-2.5 1v3.5l2.5 1zm0-6.9l10.4-3.8-10.4-4-10.4 4 10.4 3.8z" class="st0"/>
  <path d="M25.1 6.4L13.2 1.7c-.1 0-.3-.1-.4-.1-.1 0-.3 0-.4.1L.5 6.4c-.2 0-.4.3-.4.6v15.9c0 .3.2.5.4.6l11.8 4.8c.1 0 .3.1.4.1s.3 0 .4-.1l11.8-4.8c.2-.1.4-.3.4-.6V7c.2-.3 0-.6-.2-.6zM12.8 2.8l10.7 4.1-10.7 3.9L2.1 6.9l10.7-4.1zm0 9.2l2.6 1.1v3.6l-2.6 1.1-2.6-1.1v-3.6l2.6-1.1zM1.3 7.8l9.8 3.7-2 .8c-.1 0-.2.1-.2.2v4.9c0 .1.1.2.1.2l2 .8L1.3 22V7.8zm11.5 19.4L2.1 22.9 12.8 19l10.7 3.9-10.7 4.3zM24.3 22l-9.8-3.6 2-.8c.1 0 .1-.1.1-.2v-5c0-.1-.1-.2-.1-.2l-2-.8 9.8-3.7V22z" class="st0"/>
</svg>
