<svg xmlns="http://www.w3.org/2000/svg" viewBox="0 0 129.04 18.83">
  <defs/>
  <path fill="#53235d" d="M45.84 6.44c.13.2.19.41.19.64 0 .28-.08.53-.25.72-.17.2-.39.3-.67.3-.24 0-.44-.08-.61-.23-.17-.15-.25-.35-.25-.61 0-.35.18-.65.55-.88-.07-.1-.19-.16-.34-.16-.43 0-.81.16-1.15.49s-.61.73-.81 1.21-.3.93-.3 1.35v3.43c0 .5.14.85.43 1.04.28.19.71.29 1.29.29v.34c-1.33-.04-2.16-.06-2.49-.06-.29 0-.92.02-1.91.06v-.34c.3 0 .55-.03.72-.1.18-.07.3-.19.39-.35.08-.17.12-.4.12-.7V7.8c0-.5-.09-.86-.27-1.09s-.5-.34-.96-.34v-.34c.34.03.67.05 1 .05.68 0 1.25-.07 1.68-.22v2.02c.12-.34.3-.66.52-.98.23-.32.5-.58.82-.78.32-.21.65-.31 1-.31.28 0 .54.06.76.17.23.11.41.26.54.46m5.82-.41v.32c.42.03.73.1.92.22s.29.31.29.56c0 .18-.06.43-.17.74l-1.79 4.69-1.95-4.84c-.14-.34-.21-.6-.21-.8 0-.17.05-.3.15-.38.1-.08.22-.13.37-.15.15-.02.35-.03.62-.03v-.33c-.94.07-1.64.1-2.1.1-.55 0-1.08-.03-1.59-.1v.34c.18 0 .37.06.55.17.18.12.36.36.55.73l2.94 7.06-.58 1.48c-.32.84-.78 1.26-1.38 1.26-.04 0-.07-.01-.1-.02.29-.16.43-.41.43-.73 0-.24-.08-.43-.23-.56-.16-.13-.35-.2-.59-.2-.27 0-.48.08-.63.23-.15.16-.23.36-.23.62 0 .31.1.54.31.72.21.17.47.26.79.26.54 0 .96-.14 1.27-.42.26-.23.49-.61.69-1.14l.55-1.41 2.66-6.93c.15-.4.31-.68.47-.85.17-.17.36-.27.58-.29v-.32c-.34.03-.75.05-1.23.05-.34-.01-.79-.02-1.36-.05m10.99 1.62c.26.61.39 1.33.39 2.17 0 .83-.13 1.6-.4 2.33s-.67 1.31-1.23 1.76c-.56.45-1.25.68-2.08.68-.41 0-.78-.08-1.12-.24-.33-.16-.59-.37-.78-.64v2.07c0 .44.13.74.39.91s.65.26 1.17.26v.34c-.14-.01-.44-.02-.92-.04s-.95-.03-1.41-.03c-.34 0-.7.01-1.06.03s-.59.03-.69.04v-.34c.4 0 .67-.07.83-.22.16-.15.24-.41.24-.79V7.8c0-.5-.09-.86-.27-1.09s-.5-.34-.96-.34v-.34c.34.03.67.05 1 .05.68 0 1.25-.07 1.68-.22v1.71c.24-.56.59-.99 1.04-1.29.45-.31.97-.46 1.55-.46.57 0 1.09.16 1.54.47.47.29.83.75 1.09 1.36m-1.18 2.39c0-2.5-.63-3.75-1.88-3.75-.49 0-.93.18-1.32.53s-.67.86-.83 1.52v4.84c.16.32.38.58.67.76.29.19.64.28 1.04.28 1.55 0 2.32-1.39 2.32-4.18m7.31 3.56c-.24.27-.52.4-.86.4-.34 0-.6-.11-.77-.32s-.26-.57-.26-1.05V6.37h2.39v-.33h-2.39v-2.7c-.36.14-.85.21-1.45.23v2.47h-1.56v.32h1.56v5.42c0 .59.05 1.05.14 1.39.09.35.26.64.49.87.18.18.39.32.63.41s.54.13.9.13c1.14 0 1.84-.75 2.1-2.24l-.32-.08c-.16.63-.36 1.08-.6 1.34m8.71-5.88c.32.66.48 1.48.48 2.49 0 1-.16 1.83-.48 2.48-.32.65-.75 1.13-1.3 1.44s-1.18.46-1.89.46-1.34-.15-1.89-.46-.98-.79-1.3-1.44c-.32-.65-.48-1.48-.48-2.48s.16-1.83.48-2.49c.32-.65.75-1.14 1.3-1.45s1.18-.47 1.89-.47 1.34.16 1.89.47c.54.31.98.8 1.3 1.45m-1.1 2.49c0-1.39-.19-2.42-.57-3.08s-.89-.99-1.54-.99-1.16.33-1.54.99-.57 1.69-.57 3.08.19 2.41.57 3.07.89.99 1.54.99 1.16-.33 1.54-.99c.38-.67.57-1.69.57-3.07m-73.34 1.8c-.15.17-.33.25-.54.25s-.37-.07-.48-.2c-.11-.13-.16-.35-.16-.65V7.52h1.49v-.2H1.87V5.64c-.23.09-.53.13-.9.14v1.54H0v.2h.97v3.37c0 .36.03.65.09.87.06.22.16.4.3.54.12.11.24.2.39.25s.33.08.56.08c.71 0 1.14-.46 1.31-1.39l-.2-.05c-.1.38-.23.66-.37.82m5.54-.02c-.05-.1-.08-.25-.08-.44V8.87c0-.34-.03-.61-.08-.81-.05-.2-.14-.37-.27-.51-.24-.25-.6-.38-1.07-.38-.37 0-.71.09-1.01.28-.3.19-.53.49-.7.92V4.61c-.26.1-.61.14-1.05.14-.2 0-.41-.01-.62-.03v.21c.29 0 .48.07.6.21.11.14.17.36.17.67v5.73c0 .19-.03.33-.08.44-.05.1-.13.18-.24.22-.11.04-.26.06-.45.06v.21c.61-.03 1.02-.04 1.21-.04.19 0 .56.01 1.12.04v-.21c-.17 0-.3-.02-.39-.06-.09-.03-.16-.11-.2-.21s-.07-.25-.07-.44V9.31c0-.35.06-.66.18-.94s.29-.49.5-.65c.22-.15.46-.23.73-.23.23 0 .4.05.52.15s.2.23.24.4c.04.16.06.37.06.61v2.9c0 .19-.02.33-.07.44-.05.1-.11.18-.21.22s-.23.06-.39.06v.21c.56-.03.94-.04 1.13-.04.18 0 .58.01 1.21.04v-.21c-.19 0-.34-.02-.45-.06-.11-.04-.19-.12-.24-.22m5.28-.79l.2.08c-.08.23-.2.46-.38.66-.17.21-.38.37-.64.5s-.54.19-.86.19c-.48 0-.89-.11-1.24-.33-.35-.22-.61-.52-.8-.92-.18-.39-.27-.85-.27-1.36 0-.58.09-1.09.28-1.52.19-.43.45-.76.79-.99.34-.23.74-.35 1.2-.35.6 0 1.07.18 1.39.55.33.37.49.92.49 1.66h-3.14c-.02.17-.03.39-.03.64 0 .44.07.83.22 1.16.15.33.34.58.57.76.24.18.48.27.75.27.67 0 1.16-.33 1.47-1m-2.99-2.01h2.19c.01-.33-.02-.64-.08-.92-.07-.28-.18-.5-.33-.66s-.33-.24-.54-.24-.4.07-.57.2c-.17.13-.32.34-.44.61-.12.26-.2.6-.23 1.01m75.72 4.37c-.08-.17-.12-.4-.12-.7V8.54c0-.55-.04-.98-.13-1.31s-.23-.6-.43-.82c-.39-.4-.96-.61-1.72-.61-.61 0-1.15.15-1.63.46-.48.31-.86.8-1.13 1.49v-1.9c-.44.15-1 .22-1.68.22-.33 0-.67-.02-1-.05v.34c.46 0 .78.11.96.34s.27.59.27 1.09v5.06c0 .3-.04.53-.12.7s-.21.29-.39.35c-.18.07-.42.1-.72.1v.34c.99-.04 1.64-.06 1.94-.06.31 0 .91.02 1.82.06V14c-.27 0-.48-.03-.63-.1-.15-.07-.27-.19-.34-.35-.07-.17-.11-.4-.11-.7V9.27c0-.55.1-1.05.28-1.5.19-.45.46-.8.8-1.06.35-.26.74-.39 1.18-.39.37 0 .65.08.84.24.19.16.32.38.38.64s.09.59.09.98v4.68c0 .3-.04.53-.11.7s-.18.29-.33.35c-.15.07-.36.1-.63.1v.34c.91-.04 1.51-.06 1.81-.06.31 0 .95.02 1.94.06v-.34c-.31 0-.55-.03-.72-.1-.16-.06-.29-.18-.37-.35m8.98-5.84c.32.66.48 1.48.48 2.49 0 1-.16 1.83-.48 2.48-.32.65-.75 1.13-1.3 1.44s-1.18.46-1.89.46-1.34-.15-1.89-.46-.98-.79-1.3-1.44c-.32-.65-.48-1.48-.48-2.48s.16-1.83.48-2.49c.32-.65.75-1.14 1.3-1.45s1.18-.47 1.89-.47 1.34.16 1.89.47c.55.31.98.8 1.3 1.45m-1.09 2.49c0-1.39-.19-2.42-.57-3.08s-.89-.99-1.54-.99-1.16.33-1.54.99-.57 1.69-.57 3.08.19 2.41.57 3.07.89.99 1.54.99 1.16-.33 1.54-.99c.38-.67.57-1.69.57-3.07m15.34 3.35c-.08-.17-.12-.4-.12-.7V8.54c0-.53-.04-.96-.12-1.3-.08-.33-.22-.61-.41-.83-.39-.4-.95-.61-1.68-.61-.58 0-1.11.15-1.58.45-.47.3-.85.79-1.11 1.47-.06-.57-.23-1.01-.5-1.3-.39-.4-.95-.61-1.68-.61-.56 0-1.08.16-1.55.48s-.84.81-1.11 1.47v-1.9c-.44.15-1 .22-1.68.22-.33 0-.67-.02-1-.05v.34c.46 0 .78.11.96.34s.27.59.27 1.09v5.06c0 .3-.04.53-.12.7s-.21.29-.39.35c-.18.07-.42.1-.72.1v.34c.99-.04 1.64-.06 1.94-.06.31 0 .91.02 1.82.06v-.34c-.27 0-.48-.03-.63-.1-.15-.07-.26-.19-.34-.35-.07-.17-.11-.4-.11-.7V9.27c0-.54.1-1.04.29-1.49s.45-.81.78-1.07.71-.39 1.12-.39c.36 0 .63.08.81.24s.29.37.34.62c.05.26.07.59.07 1v4.68c0 .3-.03.53-.1.7s-.18.29-.33.35c-.15.07-.36.1-.63.1v.34c.9-.04 1.51-.06 1.82-.06.3 0 .95.02 1.93.06v-.34c-.3 0-.54-.03-.72-.1-.17-.07-.3-.19-.38-.35-.08-.17-.12-.4-.12-.7V9.25c0-.54.09-1.04.28-1.48s.45-.8.78-1.06.7-.39 1.11-.39c.37 0 .64.08.82.24s.29.37.34.62c.05.26.07.59.07 1v4.68c0 .3-.04.53-.11.7s-.18.29-.33.35c-.15.07-.36.1-.63.1v.34c.91-.04 1.51-.06 1.81-.06.3 0 .95.02 1.94.06v-.34c-.31 0-.55-.03-.72-.1-.17-.06-.3-.18-.38-.35m4.63 0c-.08-.17-.12-.4-.12-.7V5.85c-.44.15-1 .22-1.68.22-.33 0-.67-.02-1-.05v.34c.46 0 .78.11.96.34s.27.59.27 1.09v5.06c0 .3-.04.53-.12.7s-.21.29-.39.35c-.18.07-.42.1-.72.1v.34c.99-.04 1.64-.06 1.96-.06s.97.02 1.96.06V14c-.31 0-.55-.03-.72-.1-.19-.05-.32-.17-.4-.34m-1.47-9.65c.16.09.33.14.52.14.18 0 .36-.04.51-.14.16-.09.29-.22.38-.38.09-.16.14-.33.14-.52 0-.18-.05-.36-.14-.51-.09-.16-.22-.28-.38-.38-.16-.09-.33-.14-.51-.14s-.36.05-.52.14c-.16.1-.29.22-.38.38s-.14.33-.14.51.05.36.14.52c.09.17.22.29.38.38m8.38 6.44c-.3-.25-.7-.54-1.2-.86-.15-.1-.41-.26-.77-.49-.36-.23-.67-.46-.92-.71s-.38-.56-.38-.94c0-.39.12-.69.37-.91s.57-.33.96-.33c.67 0 1.17.23 1.52.7.34.46.57 1.05.69 1.76h.36c0-1.31.02-2.22.06-2.75h-.37c-.05.47-.17.71-.36.71-.07 0-.17-.04-.28-.13-.19-.15-.44-.29-.74-.41s-.64-.18-1.02-.18c-.44 0-.84.08-1.21.23-.36.15-.65.39-.86.7-.22.31-.32.7-.32 1.16 0 .42.1.79.29 1.1s.43.58.71.79c.28.22.69.49 1.22.83.44.27.78.5 1.02.69s.44.4.59.63c.15.24.22.5.22.79 0 .36-.07.66-.21.89-.14.23-.32.39-.54.5-.22.1-.45.15-.68.15-.52 0-.93-.12-1.23-.36-.31-.24-.53-.58-.68-1.01s-.26-.98-.34-1.65h-.37c0 1.54-.02 2.61-.06 3.23h.37c.06-.41.17-.61.33-.61.06 0 .11.02.15.06.23.18.45.33.66.43.37.15.8.23 1.28.23.5 0 .96-.09 1.38-.26.42-.18.76-.43 1.01-.77s.38-.75.38-1.23c0-.42-.09-.79-.28-1.11-.2-.33-.45-.62-.75-.87m7.35 1.93c-.16.62-.36 1.06-.6 1.33s-.52.4-.86.4c-.34 0-.6-.11-.77-.32s-.26-.57-.26-1.05V6.37h2.39v-.33h-2.39v-2.7c-.36.14-.85.21-1.45.23v2.47h-1.56v.32h1.56v5.42c0 .59.05 1.05.14 1.39.09.35.26.64.49.87.18.18.4.32.63.41.24.09.54.13.9.13 1.14 0 1.84-.75 2.1-2.24l-.32-.06zm-90.74 2.2c-1.61 2.51-4.38 4.21-7.55 4.34-5.46.21-9.97-4.3-9.75-9.76.13-3.39 2.07-6.32 4.88-7.86.12-.07.23.09.13.18-2.18 1.99-3.37 5.06-2.72 8.37.27 1.39.88 2.66 1.73 3.73.26-.48.77-1.08.78-1.87.02-2.21.02-4.41.01-6.62 0-.37.1-.63.39-.87 1.63-1.34 3.24-2.7 4.87-4.03.12-.1.4-.12.54-.04 1.1.62 5.38 2.07 5.85 2.12.08.01.22.13.06.27 0 0-1.27 1.27-1.96 1.97-.12.12-.27.09-.39.05-.7-.24-1.77-.68-2.72-1.06v5.67h.71v.71h-.74v7.03c2.21-.11 4.22-1.02 5.71-2.46.1-.11.24.01.17.13m-8.47-4.72h-1.3c-.25 1.05-.79 1.92-1.64 2.71-.28.26-.99.94-1.34 1.28-.08.08-.09.21-.02.3l.09.09.17.17c.1.1.21.2.32.29l.18.15c.07.06.14.12.21.17.6.46 1.29.86 1.98 1.16.4.17.82.31 1.25.42.05-.01.1-.06.1-.12V9.76zm.01-7.23c0-.11-.11-.16-.21-.1 0 0-.19.12-.29.17-.5.3-.69.77-.67 1.37l.02 4.2c.01.31-.01.59-.05.88h1.18l.02-6.52zm1.85 7.23h-1.14c0 2.18 0 4.35-.01 6.34 0 .4.09.58.48.65.23.02.45.04.67.05V9.76zm0-6.67c-.22-.09-.43-.16-.61-.23-.04-.01-.14-.05-.18-.06-.28-.09-.36.04-.36.19v6.05h1.14V3.09h.01z"/>
</svg>
